<?xml version="1.0" standalone="yes"?>
<svg xmlns="http://www.w3.org/2000/svg" width="2126" height="489">
<path style="fill:#ffffff; stroke:none;" d="M0 0L0 91C0.684756 89.7517 0.748809 89.4515 1 88C6.13764 88.8118 8.158 95.0533 13.0154 95.1528C16.8508 95.2313 20.8685 92.0644 24 90.2006C31.6155 85.6682 39.3032 81.2429 47 76.8495C69.047 64.2652 90.9534 51.4351 113 38.8495C120.77 34.4137 131.835 24.7423 141 24.321C148.797 23.9625 158.115 32.7853 165 36C162.279 40.7193 157.612 42.7772 153 45.4213C144.986 50.0159 137.029 54.7136 129 59.2809C99.2738 76.191 69.4208 92.9621 40 110.397C31.7263 115.3 23.2635 119.878 15 124.799C10.1592 127.682 5.80232 130.996 0 130L0 163C6.97966 154.577 17.7236 150.323 27 144.799C30.3588 142.799 34.8795 139.118 38.9606 139.071C43.7996 139.015 45.6582 145.249 51 144.551C59.5598 143.432 69.5781 134.834 77 130.579C96.3589 119.48 115.62 108.213 135 97.1505C149.712 88.7531 164.284 80.1085 179 71.7191C185.565 67.9768 192.554 62.2649 200 60.5332C207.352 58.8232 213.005 64.3321 218.999 67.6952C221.205 68.9324 225.551 70.6597 224.079 73.939C222.279 77.9483 215.588 80.3642 212 82.4213L180 100.85C139.928 123.725 100.072 146.977 60 169.85L17 194.579C12.6165 197.092 5.89948 202.999 1 200C-0.552016 203.699 0 208.017 0 212L0 232C15.6885 218.439 36.9941 209.428 55 199.15C63.1428 194.503 72.891 186.305 82 184.078C89.0956 182.343 92.9443 191.139 101 187.586C115.515 181.185 129.277 171.389 143 163.424C167.952 148.943 193.212 134.963 218 120.201C228.248 114.097 238.63 108.176 249 102.281C253.481 99.733 258.665 95.7763 264 95.5139C268.123 95.3111 271.652 97.9026 275 99.9398C277.814 101.652 285.739 104.455 286.369 108.106C286.718 110.129 284.368 111.46 282.976 112.381C279.154 114.91 274.984 117.016 271 119.281C254.298 128.777 237.567 138.281 221 148.011C172.921 176.249 124.225 203.436 76 231.424C59.3595 241.082 42.7232 250.768 26 260.281C17.703 265.001 9.21058 271.342 0 274L0 304C10.3742 291.47 28.99 284.508 43 276.576C64.0457 264.659 85.0071 252.588 106 240.579C116.126 234.786 126.964 226.703 138 222.901C142.384 221.391 145.016 224.022 149 225.301C152.597 226.456 156.57 225.915 160 224.471C172.136 219.36 183.574 210.972 195 204.421C218.708 190.83 242.365 177.142 266 163.424C279.301 155.705 292.658 148.07 306 140.421C311.496 137.27 318.577 131.391 325 130.721C331.016 130.093 337.969 136.482 342.995 139.259C344.748 140.228 347.756 141.567 347.369 144.062C346.575 149.174 335.008 153.44 331 155.719C314.609 165.038 298.257 174.441 282 183.989C214.719 223.505 146.831 262.154 79 300.719C59.6227 311.736 40.3259 322.893 21 334C16.6002 336.529 4.84821 346.507 1 341C-0.875157 345.469 0 351.191 0 356L0 385L0 489L1347 489C1338.42 485.139 1330.83 483.814 1324.33 475.996C1311.31 460.33 1319.43 437.56 1336 428.349C1349.53 420.825 1367.12 423 1382 423L1383 418C1379.63 419.227 1376.61 419.993 1373 419.992C1346.51 419.991 1347.92 385.943 1358.36 370C1365.88 358.516 1378.23 347.38 1393 348.21C1398.51 348.52 1402.88 352.539 1408 352.987C1411.03 353.252 1413.41 350.737 1416 349.569C1420.67 347.456 1425.15 348.465 1428.68 352.133C1429.69 353.183 1430.35 354.595 1430.67 356.001C1432.1 362.317 1427.27 370.326 1425 376C1418.75 391.633 1411.42 407.064 1406 423C1411.71 423 1418.85 421.931 1423.94 425.09C1431.38 429.704 1427.5 439.245 1421 442.543C1414.45 445.864 1404.17 444 1397 444C1391.84 462.851 1377.85 486.999 1356 488C1361.22 490.189 1368.38 489 1374 489L1413 489L1547 489L2011 489C2002.42 485.139 1994.83 483.814 1988.33 475.996C1975.78 460.896 1982.97 438.213 1999 428.955C2012.9 420.926 2030.63 423 2046 423L2047 418C2043.63 419.227 2040.61 419.993 2037 419.992C2034.22 419.992 2031.58 419.745 2029 418.633C2008.72 409.883 2013.66 382.466 2023.77 368C2031.23 357.323 2044.04 346.81 2058 348.304C2062.96 348.835 2068.31 353.229 2073 352.914C2075.92 352.717 2078.32 350.147 2081 349.151C2086.49 347.108 2093.3 349.969 2094.67 356.001C2096.1 362.317 2091.27 370.326 2089 376C2082.73 391.69 2076.11 407.245 2070 423C2075.73 423 2082.83 421.945 2087.95 425.09C2095.6 429.8 2091.71 439.137 2085 442.543C2078.45 445.864 2068.17 444 2061 444C2055.82 462.937 2041.97 486.993 2020 488C2023.43 489.441 2027.3 489 2031 489L2052 489L2126 489L2126 214C2124.27 218.018 2124.22 222.755 2122.96 227C2119.86 237.439 2114.28 245.969 2105 251.91C2088.61 262.404 2067.7 262 2049 262L1962 262C1945.7 262 1926.91 261.262 1914 249.815C1902.68 239.77 1902 226.093 1902 212C1902 194.944 1902.38 177.048 1919 167.349C1928.63 161.731 1939.16 160.657 1950 159.91C1964.66 158.901 1979.28 159 1994 159L2080 159C2080 151.937 2080.25 143.9 2075.58 138.043C2070.77 132.014 2064.04 131.58 2057 130.715C2040.95 128.744 2024.17 130 2008 130L2008 97L2030 97C2062.23 97 2108 94.2849 2121.93 131C2123.79 135.89 2124.89 140.776 2125 146C2126.88 141.531 2126 135.809 2126 131L2126 102L2126 0L92 0C95.114 1.49942 98.6581 2.06039 102 3C90.0255 12.8466 74.4487 19.7112 61 27.4213C42.196 38.2017 23.624 50.827 4 60C6.38906 30.7502 38.4957 3.32816 67 1C61.049 -1.49716 52.4202 0 46 0L0 0z"/>
<path style="fill:#3f1017; stroke:none;" d="M4 60C12.4157 57.3359 20.3493 51.397 28 47C42.3346 38.7617 56.6287 30.4562 71 22.2809C80.6316 16.8018 94.7867 11.4203 102 3C74.1371 -7.45319 40.384 4.42233 20.7292 25.1698C11.8635 34.5283 4.57349 46.8459 4 60M1 88C-0.963175 98.5745 0.431464 109.329 0.290123 120C0.252191 122.864 -1.25534 128.934 2.3179 130.342C5.69502 131.672 10.2604 128.161 13 126.576C21.9921 121.372 31.0416 116.251 40 110.989C70.4921 93.0805 101.331 75.7542 132 58.1497L154 45.4213C158.455 42.867 163.104 41.0177 165 36C158.719 31.8572 148.803 23.8579 141 24.1489C131.037 24.5205 119.414 34.5974 111 39.4213C87.9753 52.6214 65.049 65.9927 42 79.1505C35.9767 82.5889 29.9668 86.0679 24 89.6034C21.0483 91.3524 17.5314 94.2455 14.0039 94.5741C8.92169 95.0474 6.48336 88.4232 1 88M1622 43.4792C1609.63 46.0468 1612 60.3807 1612 70C1612 74.6205 1611.61 79.9849 1614.56 83.892C1620.07 91.1707 1632.06 89.0005 1640 89C1643.3 88.9998 1646.77 89.2565 1650 88.4668C1662.23 85.4792 1659 69.4928 1659 60C1659 55.7044 1659.46 50.7446 1656.49 47.2245C1650.98 40.6938 1638.55 42.9971 1631 43C1628.01 43.0012 1624.95 42.8676 1622 43.4792M1351 262L1397 262L1397 135L1457 135L1457 97L1397 97C1397 91.5471 1396.59 84.5221 1401.23 80.6528C1405.7 76.9189 1412.6 78 1418 78L1457 78L1457 44C1436.99 44 1416.94 43.5438 1397 44.9105C1385.46 45.7018 1373.35 46.5316 1364 54.3287C1347.38 68.204 1351 93.6808 1351 113L1351 262M1694 44L1694 262L1740 262L1740 186C1761.73 203.518 1783.22 221.347 1805 238.8L1824 254.2C1827.07 256.657 1830.24 260.058 1834 261.4C1839.73 263.444 1847.97 262 1854 262L1896 262C1891.8 256.291 1885.49 252.068 1880 247.611C1871.02 240.315 1862.03 233.035 1853 225.8C1840.61 215.87 1828.24 205.863 1816 195.75C1808.74 189.756 1801.37 182.32 1793 178C1799.56 169.451 1810.52 163.185 1819 156.576C1835.62 143.624 1852.3 130.738 1869 117.881C1877.23 111.546 1887.82 105.387 1894 97L1853 97C1847.21 97 1839.46 95.6746 1834 97.8572C1823.98 101.864 1814.4 112.684 1806 119.4L1763 153.8C1755.4 159.881 1748.12 166.629 1740 172L1740 44L1694 44M480 222L480 262L611 262C633.359 262 659.13 265.449 680 255.677C706.383 243.323 704.794 206.535 702.166 182C700.853 169.744 697.42 157.626 686.996 149.927C673.059 139.634 653.636 139 637 139L569 139C556.668 139 531.036 143.973 524.653 129.996C519.662 119.068 522.472 100.297 535 96.2245C542.429 93.8098 551.287 95 559 95L603 95L603 55L544 55C528.787 55 512.261 55.1447 499 63.6998C491.544 68.5099 486.778 75.7035 483.865 84C480.379 93.9266 480 104.603 480 115C480 134.675 479.369 158.346 499 169.475C512.435 177.091 530.031 177 545 177L612 177C623.6 177 641.753 173.604 651.985 180.005C661.71 186.091 663.265 207.033 656.347 215.815C653.392 219.567 648.615 221.323 644 221.826C626.085 223.78 607.025 222 589 222L480 222M199 60.5324C192.948 61.9695 187.288 66.263 182 69.3966C172.727 74.8918 163.351 80.2176 154 85.5787C121.614 104.145 89.4816 123.175 57 141.572C54.3353 143.081 51.1618 145.122 48.0147 143.871C44.6862 142.548 42.9023 138.478 38.9606 138.619C35.8416 138.73 32.6222 140.929 30 142.427L13 152.281C9.2512 154.412 4.30944 156.389 1.85802 160.105C-2.31964 166.437 0 178.712 0 186C0 189.459 -1.83318 200.863 3.22839 201.469C7.65644 201.999 13.3693 197.223 17 195.15C27.6905 189.048 38.302 182.805 49 176.719C91.4419 152.575 133.552 127.853 176 103.719C188.035 96.8766 199.996 89.8989 212 83C215.766 80.8358 223.075 78.2445 224.824 73.939C226.292 70.3243 221.388 68.4965 218.999 67.1389C212.396 63.3863 207.082 58.6133 199 60.5324M0 274C9.21996 272.355 17.95 265.445 26 260.85C42.0252 251.701 58.1459 242.643 74 233.201C122.568 204.276 172.368 177.422 221 148.603C238.187 138.418 255.632 128.593 273 118.719C276.417 116.776 291.043 111.082 285.663 105.9C281.12 101.526 270.453 95.0042 264 95.2785C256.314 95.6052 248.457 102.046 242 105.719C225.922 114.865 209.998 124.291 194 133.576C173.045 145.737 152.041 157.838 131 169.85C120.856 175.641 110.731 182.982 100 187.583C92.4289 190.829 88.3788 181.59 81 183.985C74.0258 186.247 67.3538 191.524 61 195.15L22 217.421C15.8905 220.924 4.66688 224.69 1.17901 231.093C-0.944215 234.991 0 240.718 0 245L0 274M832 97L832 130C847.862 130 864.25 128.831 880 130.715C887.337 131.592 894.421 131.953 899.606 138.094C904.173 143.504 904.708 152.205 905 159L794 159C776.508 159 753.558 158.176 739.004 169.529C729.997 176.555 728.026 186.327 726.715 197C724.104 218.262 724.669 245.845 747 256.099C764.813 264.278 785.98 262 805 262L865 262C878.34 262 891.787 262.685 905 260.562C912.544 259.35 920.165 257.533 927 254.019C955.65 239.287 951 200.001 951 173C951 154.17 951.847 132.445 938.985 117.09C926.265 101.905 906.531 99.1807 888 97.9105C869.381 96.6342 850.691 97 832 97M982 262L1028 262L1028 176C1028 163.783 1027.45 148.692 1038 140.394C1044.39 135.374 1053.21 135.003 1061 135L1089 135L1089 97C1061.21 97 1025.29 93.1707 1002 111.518C987.895 122.631 984.715 139.273 982.714 156C981.179 168.84 982 182.071 982 195L982 262M1199 97L1199 130C1215.17 130 1231.95 128.744 1248 130.715C1255.69 131.659 1262.45 132.394 1267.58 139.015C1271.98 144.694 1272 152.175 1272 159L1162 159C1143.79 159 1121.29 158.236 1106.04 169.927C1095.1 178.319 1094 192.319 1094 205C1094 225.539 1093.38 246.18 1115 256.204C1132.45 264.293 1153.34 262 1172 262L1231 262C1244.7 262 1258.41 262.584 1272 260.573C1279.17 259.51 1286.4 257.765 1293 254.677C1323.73 240.286 1318 199.917 1318 172C1318 152.705 1319.32 131.598 1305.7 116.015C1293.4 101.942 1273.65 98.7402 1256 97.9606C1237.01 97.1219 1218.05 97 1199 97M1479 262L1525 262L1525 177C1525 165.57 1523.68 149.884 1533.19 141.529C1545.79 130.453 1570.52 135 1586 135L1586 97C1559.64 97 1526.24 93.5027 1503 108.548C1486.83 119.018 1481.93 135.994 1479.72 154C1478.1 167.149 1479 180.756 1479 194L1479 262M2008 97L2008 130C2023.85 130 2040.27 128.783 2056 130.715C2064.08 131.707 2071.33 132.62 2076.3 140.004C2080.04 145.564 2080 152.582 2080 159L1970 159C1952.29 159 1929.97 158.112 1915.04 169.301C1903.24 178.142 1902 192.415 1902 206C1902 225.499 1901.43 246.046 1922 255.677C1940.24 264.218 1961.45 262 1981 262L2039 262C2052.7 262 2066.41 262.584 2080 260.573C2086.88 259.553 2093.63 257.998 2100 255.135C2131.78 240.848 2126 200.609 2126 172C2126 153.322 2127.5 132.374 2114.67 117.004C2102.33 102.217 2082.14 98.7619 2064 97.9606C2045.34 97.1365 2026.72 97 2008 97M1612 102L1612 262L1659 262L1659 102L1612 102z"/>
<path style="fill:#ffffff; stroke:none;" d="M0 118L0 121C0.69612 119.446 0.696093 119.554 0 118z"/>
<path style="fill:#3f1017; stroke:none;" d="M1 344C7.11212 343.371 11.7823 339.845 17 336.85L43 322L135 269C164.667 251.95 194.284 234.811 224 217.85C255.735 199.736 287.267 181.265 319 163.15C326.664 158.776 334.45 154.554 341.999 149.985C344.25 148.623 348.547 146.445 348.079 143.198C347.698 140.556 344.001 139.3 341.999 138.219C336.588 135.296 330.618 129.331 324 130.573C316.744 131.933 309.33 137.95 303 141.579C289.324 149.419 275.544 157.135 262 165.201C239.53 178.583 216.689 191.414 194 204.421C182.575 210.971 171.136 219.365 159 224.471C150.818 227.913 145.391 219.849 138 222.395C129.24 225.412 121.062 231.64 113 236.14C96.5957 245.296 80.2895 254.638 64 264C49.3732 272.406 34.6262 280.594 20 289C14.2962 292.278 5.54434 295.408 1.85802 301.093C-0.56412 304.829 0.000272535 309.762 0 314C-0.000638599 323.931 -0.818223 334.206 1 344M376.999 170.696C372.045 171.677 367.276 175.478 363 177.989C354.041 183.251 344.986 188.36 336 193.576C307.715 209.992 279.285 226.16 251 242.576C243.701 246.812 235.784 253.07 227.17 254.022C219.033 254.921 213.146 250.311 205 254.274C190.605 261.276 176.903 270.215 163 278.15C133.68 294.886 104.347 311.596 75 328.281C58.9998 337.378 42.9741 346.44 27 355.579C20.6422 359.216 10.2771 362.819 5.60339 368.529C-0.299221 375.741 10.461 390.977 14.4398 396.995C16.0911 399.493 17.9316 401.971 21.0147 402.667C28.6032 404.379 39.8131 394.885 46 391.201C67.1456 378.607 88.6158 366.465 110 354.281C186.509 310.689 262.608 266.374 339 222.579L374 202.421C378.69 199.733 386.063 197.009 389.382 192.621C393.642 186.989 384.244 169.261 376.999 170.696z"/>
<path style="fill:#ffffff; stroke:none;" d="M905 188L849 188L812 188C802.305 188 787.828 185.393 779.015 190.164C769.149 195.507 768.626 220.411 777.214 227.146C783.981 232.453 796.92 230 805 230L870 230C879.16 230 890.5 231.469 897.812 224.66C906.804 216.285 905 199.153 905 188M1272 188L1216 188L1180 188C1169.89 188 1155.18 185.34 1146.04 190.442C1137.88 195.005 1138.27 213.03 1140.57 220.999C1141.32 223.584 1142.87 225.732 1145.05 227.297C1152.12 232.356 1164.77 230 1173 230L1237 230C1246.24 230 1257.54 231.673 1264.9 224.786C1274.42 215.878 1272 199.732 1272 188M2080 188L2024 188L1988 188C1978 188 1963.09 185.281 1954.09 190.442C1945.98 195.094 1946.15 213.048 1948.65 220.999C1949.44 223.509 1950.98 225.735 1953.1 227.297C1960.05 232.4 1972.86 230 1981 230L2045 230C2054.34 230 2065.44 231.611 2072.95 224.786C2082.64 215.965 2080 199.76 2080 188z"/>
<path style="fill:#3f1017; stroke:none;" d="M40 419C44.7755 423.785 52.6027 425.747 59 427.573C82.6085 434.31 103.211 428.948 124 417C192.355 377.715 261.019 338.938 329 299.011C350.902 286.147 374.301 275.864 386.241 252C389.104 246.277 391.704 240.452 392 234C385.815 235.103 380.432 238.828 375 241.86C361.954 249.142 349.121 259.186 335 264.135C325.194 267.572 314.666 264.173 305 268.093C293.546 272.739 282.717 280.434 272 286.579C253.015 297.463 234.005 308.302 215 319.15C156.689 352.434 97.8307 384.895 40 419z"/>
<path style="fill:#eeb11b; stroke:none;" d="M923 400C929.765 385.538 944.839 356.044 921 349.171C918.078 348.328 915.039 347.884 912 348.177C907.472 348.615 903.265 350.56 899 352C906.109 338.651 912.713 322.533 916.957 308C918.683 302.089 918.352 294.575 910.996 293.228C898.283 290.901 894.002 303.523 890.2 313C880.155 338.034 869.888 362.982 859.799 388C856.861 395.286 852.126 403.124 851.186 411C850.803 414.212 850.927 417.979 853.434 420.347C859.794 426.358 869.732 421.272 873.471 414.985C880.123 403.798 881.944 389.891 889.108 379C891.629 375.167 895.928 369.689 900.999 369.573C909.4 369.379 906.479 378.423 904.575 383C900.59 392.581 888.003 413.937 903.004 420.121C911.023 423.427 922.595 422.638 931 421.421C934.432 420.923 937.987 420.629 940.786 418.347C946.047 414.059 946.592 404.842 939.956 401.653C934.877 399.212 928.46 400 923 400M1507 400C1511.93 385.436 1518.45 371.263 1524.2 357C1527.83 347.988 1531.59 339.024 1535.2 330C1538.35 322.132 1545.13 311.701 1544.5 303C1543.72 292.37 1530.49 291.89 1524.33 298.214C1517.88 304.831 1515.45 316.609 1511.99 325C1503.48 345.621 1495.14 366.31 1486.8 387C1483.38 395.471 1474.51 409.21 1482.56 417.467C1489.18 424.263 1505.45 422.759 1514 421.41C1517.57 420.846 1521.1 420.277 1523.86 417.721C1531.76 410.405 1526.36 401.195 1517 400.174C1513.7 399.813 1510.31 400 1507 400M1238 320.573C1221.66 325.24 1229.36 351.339 1246 346.195C1262.28 341.161 1254.62 315.825 1238 320.573M1902 320.573C1885.66 325.24 1893.36 351.339 1910 346.195C1926.28 341.161 1918.62 315.825 1902 320.573M1726 371C1717.56 382.401 1709.46 394.314 1715.48 409C1721.07 422.616 1735.63 422.059 1748 421.999C1753.75 421.971 1761.33 421.788 1765.77 417.606C1767.4 416.069 1768.38 414.196 1768.77 411.999C1771.6 396.09 1752.83 401.933 1744 399.682C1741.21 398.968 1738.83 396.902 1738.22 393.995C1736.74 386.952 1747.36 375.011 1753 372.013C1759.69 368.462 1770.77 368.275 1768.34 357.004C1766.05 346.42 1747.86 350.038 1740 349.999C1736.41 349.982 1732.24 350.141 1729.43 347.486C1727.32 345.488 1727.04 342.449 1725.27 340.228C1722.22 336.39 1715.98 336.163 1712.04 338.742C1708.1 341.326 1706.48 345.83 1704.8 350C1701.28 358.762 1694.79 369.483 1694.23 379C1693.86 385.206 1699.04 389.356 1705 388.876C1716.98 387.911 1714.02 371.39 1726 371M705 394C716.391 394 732.071 396.854 741.996 390.147C756.465 380.369 752.611 356.888 737 350.483C709.996 339.403 682.314 364.047 682.004 391C681.904 399.689 683.23 408.663 690.043 414.787C700.246 423.959 717.306 422 730 422C735.612 422 741.601 422.211 746.996 420.362C754.296 417.86 758.464 406.936 750.891 402.09C737.608 393.588 715.542 408.146 705 394M828 400C831.547 390.854 837.597 380.779 838.815 371C840.575 356.861 830.517 346.278 816 348.301C810.921 349.009 806.109 352.992 801.286 353.338C798.96 353.505 797.066 351.479 794.985 350.734C791.184 349.373 785.473 349.493 782.043 351.742C777.006 355.046 775.314 361.716 773.2 367C768.656 378.358 763.939 389.64 759.4 401C757.387 406.036 754.424 412.427 756.742 417.895C760.418 426.565 773.045 422.62 777.363 416.956C785.4 406.413 787.455 391.553 793.799 380C796.243 375.551 801.144 369.179 806.985 369.982C814.942 371.077 811.079 379.468 809.15 384C805.152 393.389 793.973 412.773 807.015 419.836C814.685 423.988 828.668 422.751 837 421.409C840.118 420.907 843.316 420.363 845.867 418.347C851.257 414.086 851.583 404.635 844.981 401.434C840.011 399.024 833.358 400 828 400M995 416C1001.6 426.705 1030.9 424.581 1033 411C1033.98 413.856 1034.41 417.302 1036.51 419.606C1042.05 425.68 1051.79 422.574 1056.21 416.906C1064.64 406.093 1065.76 390.533 1073.13 379C1075.6 375.14 1080.67 368.954 1085.98 370.072C1093.27 371.608 1089.52 379.685 1087.8 384C1083.83 393.928 1072.36 412.545 1086 419.836C1093.83 424.016 1107.56 422.666 1116 421.245C1119.09 420.725 1122.25 420.158 1124.78 418.146C1130.03 413.957 1130.45 404.774 1123.96 401.653C1118.88 399.212 1112.46 400 1107 400C1109.99 389.053 1117.72 378.563 1117.95 367C1118.18 355.037 1107.5 347.079 1096 348.177C1089.4 348.808 1083.75 351.977 1078 355C1073.55 346.968 1061.42 349.095 1056.82 356.015C1051.25 364.391 1048.33 375.685 1044.6 385C1041.27 393.327 1036.33 402.112 1035 411C1034.03 408.491 1033.4 405.426 1031.49 403.43C1026.94 398.679 1017.92 400 1012 400C1016.56 391.447 1019.8 381.998 1023.4 373C1025.12 368.686 1027.78 363.767 1027.64 359C1027.29 347.472 1010.41 347.524 1006 356C1003.55 353.673 1001.16 351.347 998 349.995C973.151 339.363 950.448 367.023 947.845 389C946.432 400.933 949.352 415.317 962 420.034C966.692 421.784 972.046 422.047 977 421.996C983.844 421.925 989.444 419.951 995 416M1167 348.439C1140.76 352.559 1119.45 387.008 1136.64 410.999C1145.66 423.59 1161.28 422 1175 422C1181.15 422 1188.19 422.483 1193.98 419.995C1201.94 416.576 1203.82 404.668 1195 401.148C1185.42 397.327 1173.89 401.873 1164 399.467C1156.23 397.578 1152.57 390.442 1155.11 383C1157.01 377.439 1162.24 369.113 1169 369.282C1175.87 369.453 1174.18 376.537 1175.43 380.985C1176.6 385.098 1179.98 386.749 1184 386.913C1185.32 386.967 1186.74 386.744 1188 386.347C1198.63 382.985 1199 367.015 1194.01 359.001C1188.48 350.137 1176.92 346.881 1167 348.439M1325 400C1332.11 386.653 1345.95 360.168 1327 350.453C1324.57 349.207 1321.7 348.616 1319 348.293C1311.23 347.364 1306.04 352.73 1299 353.188C1296.35 353.361 1294.38 351.386 1292 350.594C1288.14 349.311 1282.58 349.698 1279.19 352.009C1275.49 354.525 1273.97 359.077 1272.28 363C1268.58 371.575 1265.27 380.329 1261.8 389C1258.84 396.41 1250.55 408.837 1253.74 416.981C1257.45 426.426 1269.68 423.034 1274.61 416.981C1283.01 406.678 1284.94 391.549 1291.31 380C1293.72 375.629 1298.21 369.3 1304 369.774C1311.73 370.408 1308.76 378.571 1307 383C1303.18 392.581 1290.52 413.582 1305.02 420.005C1313.07 423.573 1325.49 422.753 1334 421.41C1337.14 420.915 1340.34 420.47 1342.94 418.486C1348.31 414.394 1349.89 405.035 1342.95 401.653C1337.64 399.066 1330.72 400 1325 400M1383 418L1382 423C1370.33 423 1358.55 422.338 1347 424.285C1336.34 426.084 1326.5 432.271 1321.4 442C1312.07 459.802 1321.23 482.463 1341 487.485C1345.16 488.542 1349.71 489.224 1354 488.829C1360.05 488.274 1365.71 486.675 1371 483.662C1377.65 479.87 1382.49 474.4 1386.56 468C1391.09 460.888 1395.56 452.368 1397 444C1404.38 444 1415.27 446.007 1421.98 442.543C1427.98 439.447 1431.5 429.5 1424.86 425.09C1419.74 421.693 1411.82 423 1406 423C1413.22 407.741 1419.13 391.674 1425.4 376C1427.87 369.828 1432.4 361.886 1430.68 355.005C1429.07 348.546 1421.5 347.067 1416 349.147C1413.67 350.027 1411.52 352.028 1409 352.317C1404.76 352.804 1399.45 348.855 1395 348.29C1382.21 346.669 1369.43 354.15 1361.9 364.001C1353.67 374.771 1348.89 388.334 1351.47 402C1354.22 416.608 1369.56 424.469 1383 418M1554 394C1565.59 394 1580.88 396.704 1590.98 389.891C1604.62 380.702 1601.35 357.826 1587 351.189C1559.87 338.641 1531.04 363.498 1531 391C1530.99 399.947 1531.96 408.423 1539.04 414.787C1543.91 419.157 1549.73 420.402 1556 421.155C1567.54 422.541 1580.51 423.155 1592 421.076C1599.35 419.746 1608.66 411.014 1601.49 403.43C1598.44 400.213 1593.11 400.053 1589 400.004C1578.96 399.884 1559.57 404.153 1554 394M1654 416C1658.88 425.304 1683.11 424.274 1689.57 416.786C1695.92 409.422 1690.34 401.084 1682 400.174C1678.37 399.778 1674.64 400 1671 400C1675.71 389.92 1679.77 379.378 1683.8 369C1685.51 364.572 1687.36 358.625 1684.82 354.109C1679.76 345.111 1670.54 353.348 1664 353.093C1659.11 352.903 1654.24 348.712 1649 348.174C1633.51 346.585 1620.29 357.474 1612.76 370C1606.08 381.123 1602.93 398.079 1609.42 410C1617.94 425.655 1640.96 424.591 1654 416M1843 400C1846.55 390.854 1852.6 380.779 1853.81 371C1855.58 356.861 1845.52 346.278 1831 348.301C1825.92 349.009 1821.11 352.992 1816.29 353.338C1813.96 353.505 1812.07 351.479 1809.99 350.734C1806.18 349.372 1800.47 349.493 1797.04 351.742C1792.01 355.046 1790.31 361.716 1788.2 367C1783.66 378.358 1778.94 389.64 1774.4 401C1772.39 406.036 1769.42 412.427 1771.74 417.895C1775.42 426.565 1788.05 422.62 1792.36 416.956C1800.4 406.413 1802.45 391.553 1808.8 380C1811.24 375.551 1816.14 369.179 1821.98 369.982C1829.94 371.077 1826.08 379.468 1824.15 384C1820.15 393.389 1808.97 412.773 1822.02 419.836C1829.68 423.988 1843.67 422.751 1852 421.409C1855.12 420.907 1858.32 420.363 1860.87 418.347C1866.26 414.086 1866.58 404.635 1859.98 401.434C1855.01 399.024 1848.36 400 1843 400M1961 355C1956.88 348.32 1945.84 348.147 1940.8 354.214C1937.2 358.541 1935.72 364.881 1933.58 370C1929.26 380.284 1925.13 390.64 1921 401C1919.04 405.917 1915.38 412.708 1918.18 417.945C1922.56 426.133 1934.38 423.103 1938.9 416.906C1946.77 406.089 1948.86 391.624 1955.35 380C1957.81 375.588 1962.21 369.517 1968 369.913C1976.28 370.479 1972.39 379.511 1970.6 384C1966.71 393.736 1954.93 413.151 1969.04 419.925C1976.89 423.694 1989.62 422.733 1998 421.41C2001.14 420.915 2004.34 420.47 2006.94 418.486C2012.31 414.394 2013.89 405.035 2006.95 401.653C2001.64 399.066 1994.72 400 1989 400C1994.17 390.292 2002.19 375.283 2000.81 364C2000.51 361.5 1999.71 359.103 1998.3 357.004C1988.95 343.072 1972.86 348.76 1961 355M2047 418L2046 423C2034.39 423 2022.45 422.121 2011 424.311C2003.74 425.699 1996.42 428.861 1991.18 434.174C1969.92 455.744 1987.6 490.581 2017 488.907C2022.98 488.566 2028.7 486.991 2034 484.215C2040.87 480.612 2045.64 475.347 2049.97 469C2054.94 461.722 2059.5 452.738 2061 444C2068.38 444 2079.27 446.006 2085.98 442.543C2092.62 439.118 2095.75 428.601 2087.95 424.573C2082.76 421.897 2075.64 423 2070 423C2077.85 408.257 2083.19 391.517 2089.4 376C2091.87 369.828 2096.4 361.886 2094.68 355.005C2093.06 348.542 2085.51 347.073 2080 349.147C2077.68 350.021 2075.52 351.969 2073 352.201C2068.68 352.599 2063.49 348.859 2059 348.29C2046.7 346.731 2034.38 353.788 2026.81 363.015C2018.01 373.746 2012.83 388.033 2015.47 402C2018.22 416.608 2033.56 424.469 2047 418M1231 400C1233.86 392.638 1236.87 385.332 1239.8 378C1242.35 371.625 1247.64 363.101 1245.35 356.04C1241.96 345.625 1227.38 349.865 1223.07 357.004C1216.59 367.754 1212.86 381.346 1208.2 393C1206.12 398.2 1202.86 404.228 1203.56 410C1205.27 424.154 1227.61 423.077 1238 421.572C1241.44 421.074 1245.06 420.533 1247.89 418.347C1252.75 414.594 1254.14 404.822 1247.89 401.653C1242.93 399.137 1236.37 400 1231 400M1895 400C1897.85 392.64 1900.76 385.264 1903.85 378C1906.51 371.746 1911.67 363.069 1909.49 356.04C1906.19 345.445 1891.49 350.062 1887.21 357.004C1880.81 367.383 1877.13 380.681 1872.6 392C1870.04 398.393 1866.92 404.9 1868.23 411.996C1870.54 424.559 1893.74 422.872 1903 421.41C1906.11 420.919 1909.34 420.497 1911.89 418.486C1916.71 414.684 1918.16 404.834 1911.89 401.653C1906.93 399.137 1900.37 400 1895 400z"/>
<path style="fill:#ffffff; stroke:none;" d="M711 376L719 375.999C720.624 375.991 722.339 376.091 723.941 375.772C727.91 374.979 728.931 370.472 724.852 368.757C721.733 367.446 717.662 368.864 715.059 370.698C712.991 372.155 712.051 373.8 711 376M987 368.549C978.233 370.419 971.982 380.701 970.633 389C969.411 396.521 974.114 402.304 981.996 400.463C990.284 398.527 995.753 383.743 996.627 376.004C997.272 370.299 992.148 367.45 987 368.549M1389 368.653C1381.28 371.061 1375.71 380.246 1375.09 388C1374.49 395.556 1378.55 401.926 1386.98 399.566C1393.82 397.653 1395.89 387.789 1398.2 382C1399.18 379.531 1400.67 376.746 1400.56 374.015C1400.33 368.176 1393.47 367.259 1389 368.653M1560 376L1567 376C1568.64 375.997 1570.36 376.116 1571.98 375.852C1575.79 375.232 1578.25 370.872 1573.77 368.908C1570.65 367.54 1566.69 368.847 1564.06 370.698C1561.99 372.154 1561.05 373.801 1560 376M1645 368.657C1636.86 371.096 1630.4 380.892 1629.3 389C1628.29 396.51 1632.99 402.695 1641 400.427C1648.73 398.239 1655.44 382.637 1655.53 375.004C1655.59 369.543 1649.58 367.284 1645 368.657M2053 368.653C2045.39 371.029 2039.7 380.359 2039.09 388C2038.49 395.585 2042.56 401.897 2051 399.566C2057.95 397.645 2059.86 387.88 2062.2 382C2063.18 379.531 2064.67 376.746 2064.56 374.015C2064.33 368.177 2057.47 367.258 2053 368.653M1373 444C1367.39 444 1361.57 443.563 1356 444.289C1353 444.68 1349.73 445.255 1347.04 446.688C1340.07 450.396 1338.36 461.728 1346.04 465.821C1353.56 469.826 1361.41 463.946 1365.48 457.996C1368.47 453.619 1370.96 448.887 1373 444M2037 444C2031.39 444 2025.57 443.563 2020 444.289C2015.65 444.856 2010.64 445.83 2007.65 449.34C1998.59 459.991 2012.32 471.258 2022.96 464.772C2025.7 463.099 2027.72 460.582 2029.56 457.996C2032.62 453.688 2034.97 448.865 2037 444z"/>
</svg>
